<svg xmlns="http://www.w3.org/2000/svg" viewBox="0 0 492.8 492.8">
  <path d="M480 230.4H262.4V12.8c0-7.2-8.8-12.8-16-12.8-7.2 0-16 5.6-16 12.8v217.6H12.8c-7.2 0-12.8 8.8-12.8 16 0 7.2 5.6 16 12.8 16h217.6V480c0 7.2 8.8 12.8 16 12.8 7.2 0 16-5.6 16-12.8V262.4H480c7.2 0 12.8-8.8 12.8-16s-6.4-16-12.8-16z" fill="#c9c6b1"/>
  <path fill="#c43d27" d="M449.6 154.4l-40-40.8 40-40-32.8-32.8-40 40-40.8-40-32.8 32.8 40.8 40-40.8 40.8 32.8 32.8 40.8-40.8 40 40.8z"/>
  <path fill="#991608" d="M336 187.2l40.8-40.8 40 40.8 32.8-32.8-40-40.8 40-40-32.8-32.8-40 40"/>
  <path d="M194.4 376.8c0 41.6-33.6 75.2-75.2 75.2S44 418.4 44 376.8s33.6-75.2 75.2-75.2c40.8-.8 75.2 32.8 75.2 75.2z" fill="#07bed6"/>
  <path d="M172 323.2c29.6 29.6 29.6 77.6 0 107.2s-77.6 29.6-107.2 0" fill="#00a1ad"/>
  <path d="M480 230.4H262.4l-32 32V480c0 7.2 8.8 12.8 16 12.8 7.2 0 16-5.6 16-12.8V262.4H480c7.2 0 12.8-8.8 12.8-16s-6.4-16-12.8-16z" fill="#b2af9a"/>
</svg>
